<svg xmlns="http://www.w3.org/2000/svg" width="1354" height="1236">
  <rect width="1354" height="1236" fill="#0a0a0f"/>
  <circle cx="63" cy="56" r="13" fill="#6B21E8"/>
  <text x="86" y="62" fill="#f0f0f5" font-size="26" font-weight="800" font-family="Arial" letter-spacing="3">HUMAN2AI — PALETTE</text>
  <text x="50" y="92" fill="#6b7280" font-size="14" font-family="Arial" letter-spacing="2">OBSIDIAN INTELLIGENCE</text>
  <text x="50" y="120" fill="#9ca3af" font-size="20" font-weight="700" font-family="Arial" letter-spacing="2">BRAND</text>
      <rect x="50" y="138" width="300" height="150" rx="14" fill="#12121a" stroke="rgba(255,255,255,0.08)"/>
      <rect x="50" y="138" width="300" height="70" rx="14" fill="#6B21E8"/>
      <rect x="50" y="178" width="300" height="30" fill="#6B21E8"/>
      <text x="66" y="234" fill="#f0f0f5" font-size="17" font-weight="700" font-family="Arial">Deep Violet</text>
      <text x="66" y="254" fill="#6b7280" font-size="12" font-family="Arial">Primario</text>
      <text x="66" y="276" fill="#9ca3af" font-size="13" font-family="monospace">#6B21E8 &#183; rgb(107, 33, 232)</text>
      <rect x="368" y="138" width="300" height="150" rx="14" fill="#12121a" stroke="rgba(255,255,255,0.08)"/>
      <rect x="368" y="138" width="300" height="70" rx="14" fill="#B8005C"/>
      <rect x="368" y="178" width="300" height="30" fill="#B8005C"/>
      <text x="384" y="234" fill="#f0f0f5" font-size="17" font-weight="700" font-family="Arial">Crimson Empathy</text>
      <text x="384" y="254" fill="#6b7280" font-size="12" font-family="Arial">Secondario</text>
      <text x="384" y="276" fill="#9ca3af" font-size="13" font-family="monospace">#B8005C &#183; rgb(184, 0, 92)</text>
      <rect x="686" y="138" width="300" height="150" rx="14" fill="#12121a" stroke="rgba(255,255,255,0.08)"/>
      <rect x="686" y="138" width="300" height="70" rx="14" fill="#00A896"/>
      <rect x="686" y="178" width="300" height="30" fill="#00A896"/>
      <text x="702" y="234" fill="#f0f0f5" font-size="17" font-weight="700" font-family="Arial">Precision Teal</text>
      <text x="702" y="254" fill="#6b7280" font-size="12" font-family="Arial">Accento</text>
      <text x="702" y="276" fill="#9ca3af" font-size="13" font-family="monospace">#00A896 &#183; rgb(0, 168, 150)</text><text x="50" y="352" fill="#9ca3af" font-size="20" font-weight="700" font-family="Arial" letter-spacing="2">BRAND · VARIANTI</text>
      <rect x="50" y="370" width="300" height="150" rx="14" fill="#12121a" stroke="rgba(255,255,255,0.08)"/>
      <rect x="50" y="370" width="300" height="70" rx="14" fill="#8B47F0"/>
      <rect x="50" y="410" width="300" height="30" fill="#8B47F0"/>
      <text x="66" y="466" fill="#f0f0f5" font-size="17" font-weight="700" font-family="Arial">Violet Light</text>
      <text x="66" y="486" fill="#6b7280" font-size="12" font-family="Arial">Hover/link</text>
      <text x="66" y="508" fill="#9ca3af" font-size="13" font-family="monospace">#8B47F0 &#183; rgb(139, 71, 240)</text>
      <rect x="368" y="370" width="300" height="150" rx="14" fill="#12121a" stroke="rgba(255,255,255,0.08)"/>
      <rect x="368" y="370" width="300" height="70" rx="14" fill="#00D4BE"/>
      <rect x="368" y="410" width="300" height="30" fill="#00D4BE"/>
      <text x="384" y="466" fill="#f0f0f5" font-size="17" font-weight="700" font-family="Arial">Teal Bright</text>
      <text x="384" y="486" fill="#6b7280" font-size="12" font-family="Arial">Gradiente</text>
      <text x="384" y="508" fill="#9ca3af" font-size="13" font-family="monospace">#00D4BE &#183; rgb(0, 212, 190)</text>
      <rect x="686" y="370" width="300" height="150" rx="14" fill="#12121a" stroke="rgba(255,255,255,0.08)"/>
      <rect x="686" y="370" width="300" height="70" rx="14" fill="#E0006F"/>
      <rect x="686" y="410" width="300" height="30" fill="#E0006F"/>
      <text x="702" y="466" fill="#f0f0f5" font-size="17" font-weight="700" font-family="Arial">Crimson Bright</text>
      <text x="702" y="486" fill="#6b7280" font-size="12" font-family="Arial">Gradiente</text>
      <text x="702" y="508" fill="#9ca3af" font-size="13" font-family="monospace">#E0006F &#183; rgb(224, 0, 111)</text>
      <rect x="1004" y="370" width="300" height="150" rx="14" fill="#12121a" stroke="rgba(255,255,255,0.08)"/>
      <rect x="1004" y="370" width="300" height="70" rx="14" fill="#00C864"/>
      <rect x="1004" y="410" width="300" height="30" fill="#00C864"/>
      <text x="1020" y="466" fill="#f0f0f5" font-size="17" font-weight="700" font-family="Arial">Signal Green</text>
      <text x="1020" y="486" fill="#6b7280" font-size="12" font-family="Arial">Stato attivo</text>
      <text x="1020" y="508" fill="#9ca3af" font-size="13" font-family="monospace">#00C864 &#183; rgb(0, 200, 100)</text><text x="50" y="584" fill="#9ca3af" font-size="20" font-weight="700" font-family="Arial" letter-spacing="2">SUPERFICI (OBSIDIAN)</text>
      <rect x="50" y="602" width="300" height="150" rx="14" fill="#12121a" stroke="rgba(255,255,255,0.08)"/>
      <rect x="50" y="602" width="300" height="70" rx="14" fill="#0A0A0F"/>
      <rect x="50" y="642" width="300" height="30" fill="#0A0A0F"/>
      <text x="66" y="698" fill="#f0f0f5" font-size="17" font-weight="700" font-family="Arial">Obsidian Base</text>
      <text x="66" y="718" fill="#6b7280" font-size="12" font-family="Arial">Sfondo</text>
      <text x="66" y="740" fill="#9ca3af" font-size="13" font-family="monospace">#0A0A0F &#183; rgb(10, 10, 15)</text>
      <rect x="368" y="602" width="300" height="150" rx="14" fill="#12121a" stroke="rgba(255,255,255,0.08)"/>
      <rect x="368" y="602" width="300" height="70" rx="14" fill="#0D0D14"/>
      <rect x="368" y="642" width="300" height="30" fill="#0D0D14"/>
      <text x="384" y="698" fill="#f0f0f5" font-size="17" font-weight="700" font-family="Arial">Obsidian Panel</text>
      <text x="384" y="718" fill="#6b7280" font-size="12" font-family="Arial">Pannello</text>
      <text x="384" y="740" fill="#9ca3af" font-size="13" font-family="monospace">#0D0D14 &#183; rgb(13, 13, 20)</text>
      <rect x="686" y="602" width="300" height="150" rx="14" fill="#12121a" stroke="rgba(255,255,255,0.08)"/>
      <rect x="686" y="602" width="300" height="70" rx="14" fill="#12121A"/>
      <rect x="686" y="642" width="300" height="30" fill="#12121A"/>
      <text x="702" y="698" fill="#f0f0f5" font-size="17" font-weight="700" font-family="Arial">Obsidian Card</text>
      <text x="702" y="718" fill="#6b7280" font-size="12" font-family="Arial">Card</text>
      <text x="702" y="740" fill="#9ca3af" font-size="13" font-family="monospace">#12121A &#183; rgb(18, 18, 26)</text>
      <rect x="1004" y="602" width="300" height="150" rx="14" fill="#12121a" stroke="rgba(255,255,255,0.08)"/>
      <rect x="1004" y="602" width="300" height="70" rx="14" fill="#1C1C28"/>
      <rect x="1004" y="642" width="300" height="30" fill="#1C1C28"/>
      <text x="1020" y="698" fill="#f0f0f5" font-size="17" font-weight="700" font-family="Arial">Obsidian Raised</text>
      <text x="1020" y="718" fill="#6b7280" font-size="12" font-family="Arial">Rilievo</text>
      <text x="1020" y="740" fill="#9ca3af" font-size="13" font-family="monospace">#1C1C28 &#183; rgb(28, 28, 40)</text><text x="50" y="816" fill="#9ca3af" font-size="20" font-weight="700" font-family="Arial" letter-spacing="2">TESTO &amp; NEUTRALI</text>
      <rect x="50" y="834" width="300" height="150" rx="14" fill="#12121a" stroke="rgba(255,255,255,0.08)"/>
      <rect x="50" y="834" width="300" height="70" rx="14" fill="#F0F0F5"/>
      <rect x="50" y="874" width="300" height="30" fill="#F0F0F5"/>
      <text x="66" y="930" fill="#f0f0f5" font-size="17" font-weight="700" font-family="Arial">Text Primary</text>
      <text x="66" y="950" fill="#6b7280" font-size="12" font-family="Arial">Testo</text>
      <text x="66" y="972" fill="#9ca3af" font-size="13" font-family="monospace">#F0F0F5 &#183; rgb(240, 240, 245)</text>
      <rect x="368" y="834" width="300" height="150" rx="14" fill="#12121a" stroke="rgba(255,255,255,0.08)"/>
      <rect x="368" y="834" width="300" height="70" rx="14" fill="#9CA3AF"/>
      <rect x="368" y="874" width="300" height="30" fill="#9CA3AF"/>
      <text x="384" y="930" fill="#f0f0f5" font-size="17" font-weight="700" font-family="Arial">Text Secondary</text>
      <text x="384" y="950" fill="#6b7280" font-size="12" font-family="Arial">Testo 2</text>
      <text x="384" y="972" fill="#9ca3af" font-size="13" font-family="monospace">#9CA3AF &#183; rgb(156, 163, 175)</text>
      <rect x="686" y="834" width="300" height="150" rx="14" fill="#12121a" stroke="rgba(255,255,255,0.08)"/>
      <rect x="686" y="834" width="300" height="70" rx="14" fill="#6B7280"/>
      <rect x="686" y="874" width="300" height="30" fill="#6B7280"/>
      <text x="702" y="930" fill="#f0f0f5" font-size="17" font-weight="700" font-family="Arial">Text Muted</text>
      <text x="702" y="950" fill="#6b7280" font-size="12" font-family="Arial">Attenuato</text>
      <text x="702" y="972" fill="#9ca3af" font-size="13" font-family="monospace">#6B7280 &#183; rgb(107, 114, 128)</text>
      <rect x="1004" y="834" width="300" height="150" rx="14" fill="#12121a" stroke="rgba(255,255,255,0.08)"/>
      <rect x="1004" y="834" width="300" height="70" rx="14" fill="#374151"/>
      <rect x="1004" y="874" width="300" height="30" fill="#374151"/>
      <text x="1020" y="930" fill="#f0f0f5" font-size="17" font-weight="700" font-family="Arial">Text Faint</text>
      <text x="1020" y="950" fill="#6b7280" font-size="12" font-family="Arial">Tenue</text>
      <text x="1020" y="972" fill="#9ca3af" font-size="13" font-family="monospace">#374151 &#183; rgb(55, 65, 81)</text>
      <rect x="50" y="1002" width="300" height="150" rx="14" fill="#12121a" stroke="rgba(255,255,255,0.08)"/>
      <rect x="50" y="1002" width="300" height="70" rx="14" fill="#4B5563"/>
      <rect x="50" y="1042" width="300" height="30" fill="#4B5563"/>
      <text x="66" y="1098" fill="#f0f0f5" font-size="17" font-weight="700" font-family="Arial">Text Disabled</text>
      <text x="66" y="1118" fill="#6b7280" font-size="12" font-family="Arial">Disabilitato</text>
      <text x="66" y="1140" fill="#9ca3af" font-size="13" font-family="monospace">#4B5563 &#183; rgb(75, 85, 99)</text>
      <rect x="368" y="1002" width="300" height="150" rx="14" fill="#12121a" stroke="rgba(255,255,255,0.08)"/>
      <rect x="368" y="1002" width="300" height="70" rx="14" fill="#06231F"/>
      <rect x="368" y="1042" width="300" height="30" fill="#06231F"/>
      <text x="384" y="1098" fill="#f0f0f5" font-size="17" font-weight="700" font-family="Arial">Teal Ink</text>
      <text x="384" y="1118" fill="#6b7280" font-size="12" font-family="Arial">Su teal</text>
      <text x="384" y="1140" fill="#9ca3af" font-size="13" font-family="monospace">#06231F &#183; rgb(6, 35, 31)</text>
</svg>